<?xml version="1.0" encoding="UTF-8" standalone="no"?>
<svg xmlns:svg="http://www.w3.org/2000/svg" xmlns="http://www.w3.org/2000/svg" version="1.1" width="520px" height="520px" viewBox="-260, -260, 520, 520"
id="svg1" xml:space="preserve">
	<defs id="defs1">
		<radialGradient id="Gradient1" gradientUnits="userSpaceOnUse" cx="0" cy="0" r="250">
			<stop offset="0" style="stop-color:#9999FF"/>
			<stop offset="1" style="stop-color:#000099"/>
		</radialGradient>
	</defs>
	<circle cx="0" cy="0" r="250" id="circle1" style="fill-opacity:1; fill:url(#Gradient1); stroke:none;" />
	<g id="g1" style="fill:#FFFFFF; fill-opacity:1; stroke:none;">
		<path transform="scale(4,4)"  d="M 8.4,25.5 -9.6,25.5 C -9.6,22.9 -9.6,21.4 -9.6,20.8 -9.6,15.0 -8.7,10.2 -6.8,6.5 -4.8,2.7 -1.0,-1.5 4.8,-6.2 10.5,-10.9 14.0,-13.9 15.1,-15.4 16.8,-17.7 17.7,-20.2 17.7,-23.0 17.7,-26.8 16.2,-30.1 13.1,-32.8 10.0,-35.6 5.9,-37.0 0.7,-37.0 -4.3,-37.0 -8.5,-35.5 -11.9,-32.7 -15.3,-29.8 -17.6,-25.5 -18.9,-19.6 L -37.0,-21.8 C -36.5,-30.2 -32.9,-37.4 -26.3,-43.2 -19.6,-49.1 -10.9,-52.0 -0.2,-52.0 11.2,-52.0 20.2,-49.0 26.9,-43.1 33.6,-37.2 37.0,-30.3 37.0,-22.4 37.0,-18.0 35.7,-13.9 33.3,-10.0 30.8,-6.1 25.6,-0.8 17.5,5.8 13.3,9.3 10.7,12.1 9.7,14.2 8.7,16.3 8.3,20.1 8.4,25.5 z M -9.6,52.1 -9.6,32.3 10.2,32.3 10.2,52.1 z" id="path1" />
	</g>
</svg>